<svg width="24" height="24" viewBox="0 0 24 24" fill="none" xmlns="http://www.w3.org/2000/svg">
<path fill-rule="evenodd" clip-rule="evenodd" d="M9 9.00022C9 8.20457 9.31607 7.4415 9.87868 6.8789C10.4413 6.31629 11.2044 6.00022 12 6.00022C12.7956 6.00022 13.5587 6.31629 14.1213 6.8789C14.6839 7.4415 15 8.20457 15 9.00022C15 9.79587 14.6839 10.5589 14.1213 11.1215C13.5587 11.6841 12.7956 12.0002 12 12.0002C11.2044 12.0002 10.4413 11.6841 9.87868 11.1215C9.31607 10.5589 9 9.79587 9 9.00022ZM15.291 12.7642C16.057 12.0945 16.6004 11.2071 16.8488 10.2204C17.0971 9.23377 17.0385 8.19482 16.6809 7.24231C16.3232 6.28981 15.6835 5.46909 14.8471 4.88974C14.0107 4.3104 13.0174 4 12 4C10.9826 4 9.98933 4.3104 9.15293 4.88974C8.31654 5.46909 7.6768 6.28981 7.31913 7.24231C6.96146 8.19482 6.90289 9.23377 7.15123 10.2204C7.39958 11.2071 7.94302 12.0945 8.709 12.7642C6.525 13.8452 5 15.9742 5 18.5002C5 18.7654 5.10536 19.0198 5.29289 19.2073C5.48043 19.3949 5.73478 19.5002 6 19.5002C6.26522 19.5002 6.51957 19.3949 6.70711 19.2073C6.89464 19.0198 7 18.7654 7 18.5002C7 16.0952 9.155 14.0002 12 14.0002C14.845 14.0002 17 16.0952 17 18.5002C17 18.7654 17.1054 19.0198 17.2929 19.2073C17.4804 19.3949 17.7348 19.5002 18 19.5002C18.2652 19.5002 18.5196 19.3949 18.7071 19.2073C18.8946 19.0198 19 18.7654 19 18.5002C19 15.9742 17.475 13.8452 15.291 12.7642Z" fill="white"/>
</svg>
