<svg width="24" height="28" viewBox="0 0 24 28" fill="none" xmlns="http://www.w3.org/2000/svg">
<path fill-rule="evenodd" clip-rule="evenodd" d="M21.3333 3.33335H20V0.666687H17.3333V3.33335H6.66667V0.666687H4V3.33335H2.66667C1.18667 3.33335 0 4.53335 0 6.00002V24.6667C0 26.1334 1.18667 27.3334 2.66667 27.3334H21.3333C22.8 27.3334 24 26.1334 24 24.6667V6.00002C24 4.53335 22.8 3.33335 21.3333 3.33335ZM21.3333 24.6667H2.66667V10H21.3333V24.6667ZM4.66667 15.3334C4.66667 13.4934 6.16 12 8 12C9.84 12 11.3333 13.4934 11.3333 15.3334C11.3333 17.1734 9.84 18.6667 8 18.6667C6.16 18.6667 4.66667 17.1734 4.66667 15.3334Z" fill="black"/>
</svg>
