<svg width="28" height="28" viewBox="0 0 28 28" fill="none" xmlns="http://www.w3.org/2000/svg">
<path d="M12.6666 7.33335H15.3333V10H12.6666V7.33335ZM12.6666 12.6667H15.3333V20.6667H12.6666V12.6667ZM14 0.666687C6.63996 0.666687 0.666626 6.64002 0.666626 14C0.666626 21.36 6.63996 27.3334 14 27.3334C21.36 27.3334 27.3333 21.36 27.3333 14C27.3333 6.64002 21.36 0.666687 14 0.666687ZM14 24.6667C8.11996 24.6667 3.33329 19.88 3.33329 14C3.33329 8.12002 8.11996 3.33335 14 3.33335C19.88 3.33335 24.6666 8.12002 24.6666 14C24.6666 19.88 19.88 24.6667 14 24.6667Z" fill="#49454F"/>
</svg>
