<svg width="24" height="24" viewBox="0 0 24 24" fill="none" xmlns="http://www.w3.org/2000/svg">
<path d="M15.7125 13.2751C14.6625 14.0626 13.3875 14.5126 12 14.5126C10.6125 14.5126 9.33749 14.0626 8.28749 13.2751C4.76249 13.5001 1.98749 15.9001 1.98749 19.5001C1.98749 19.5001 6.33749 20.7376 12 20.7376C17.6625 20.7376 22.0125 19.5001 22.0125 19.5001C22.0125 15.9001 19.2375 13.5001 15.7125 13.2751ZM12 13.2751C14.775 13.2751 17.025 11.0251 17.025 8.2501C17.025 7.9126 16.9875 7.6126 16.95 7.2751H16.9875C16.5 4.9876 14.475 3.2251 12.0375 3.2251C10.1625 3.2251 8.43749 4.2376 7.64999 5.8126C7.23749 6.5251 7.01249 7.3876 7.01249 8.2501C6.97499 11.0251 9.22499 13.2751 12 13.2751Z" fill="black"/>
</svg>
