<svg width="40" height="40" viewBox="0 0 40 40" fill="none" xmlns="http://www.w3.org/2000/svg">
<rect width="40" height="40" rx="20" fill="white"/>
<path fill-rule="evenodd" clip-rule="evenodd" d="M12.2699 15.4679C12.2002 15.5376 12.1449 15.6203 12.1072 15.7113C12.0695 15.8023 12.05 15.8999 12.05 15.9984C12.05 16.097 12.0695 16.1945 12.1072 16.2855C12.1449 16.3766 12.2002 16.4593 12.2699 16.5289L15.4699 19.7289C15.539 19.8006 15.6218 19.8578 15.7133 19.8971C15.8047 19.9365 15.9031 19.9572 16.0027 19.9581C16.1023 19.959 16.2011 19.9401 16.2933 19.9024C16.3855 19.8648 16.4692 19.8091 16.5397 19.7387C16.6101 19.6683 16.6659 19.5846 16.7036 19.4925C16.7414 19.4003 16.7604 19.3016 16.7596 19.202C16.7588 19.1024 16.7381 19.004 16.6988 18.9124C16.6596 18.8209 16.6025 18.7381 16.5309 18.6689L14.6109 16.7489H24.0009C24.1998 16.7489 24.3906 16.6699 24.5312 16.5292C24.6719 16.3886 24.7509 16.1978 24.7509 15.9989C24.7509 15.8 24.6719 15.6092 24.5312 15.4686C24.3906 15.3279 24.1998 15.2489 24.0009 15.2489H14.6099L16.5299 13.3289C16.6624 13.1867 16.7345 12.9987 16.7311 12.8044C16.7276 12.6101 16.6489 12.4247 16.5115 12.2873C16.3741 12.1499 16.1887 12.0712 15.9944 12.0677C15.8001 12.0643 15.6121 12.1364 15.4699 12.2689L12.2699 15.4679ZM24.5299 20.2679L27.7299 23.4679C27.7996 23.5376 27.8549 23.6203 27.8926 23.7113C27.9303 23.8023 27.9497 23.8999 27.9497 23.9984C27.9497 24.097 27.9303 24.1945 27.8926 24.2855C27.8549 24.3766 27.7996 24.4593 27.7299 24.5289L24.5299 27.7289C24.4607 27.8006 24.378 27.8578 24.2865 27.8971C24.195 27.9365 24.0966 27.9572 23.997 27.9581C23.8975 27.959 23.7987 27.9401 23.7065 27.9024C23.6143 27.8648 23.5306 27.8091 23.4601 27.7387C23.3896 27.6683 23.3339 27.5846 23.2962 27.4925C23.2584 27.4003 23.2394 27.3016 23.2402 27.202C23.241 27.1024 23.2617 27.004 23.3009 26.9124C23.3402 26.8209 23.3973 26.7381 23.4689 26.6689L25.3889 24.7489H15.9989C15.8 24.7489 15.6092 24.6699 15.4686 24.5292C15.3279 24.3886 15.2489 24.1978 15.2489 23.9989C15.2489 23.8 15.3279 23.6092 15.4686 23.4686C15.6092 23.3279 15.8 23.2489 15.9989 23.2489H25.3889L23.4689 21.3289C23.3364 21.1867 23.2643 20.9987 23.2677 20.8044C23.2711 20.6101 23.3499 20.4247 23.4873 20.2873C23.6247 20.1499 23.8101 20.0712 24.0044 20.0677C24.1987 20.0643 24.3867 20.1364 24.5289 20.2689L24.5299 20.2679Z" fill="#74767A"/>
<rect x="0.25" y="0.25" width="39.5" height="39.5" rx="19.75" stroke="#74767A" stroke-opacity="0.6" stroke-width="0.5"/>
</svg>
